<svg xmlns="http://www.w3.org/2000/svg" viewBox="0 0 2560 1440" width="2560" height="1440">
  <!-- Pure Black Canvas -->
  <rect width="2560" height="1440" fill="#000000" />
  <!-- Viewport Safe Crop Band with White Framing Lines -->
  <g transform="translate(0, 508.5)">
    <line x1="0" y1="0" x2="2560" y2="0" stroke="#FFFFFF" stroke-width="6" />
    <line x1="0" y1="423" x2="2560" y2="423" stroke="#FFFFFF" stroke-width="6" />
    <!-- Red Spray Paint Splatter Center Right -->
    <g fill="#D90429">
      <ellipse cx="1400" cy="200" rx="160" ry="120" />
      <circle cx="1320" cy="120" r="30" />
      <circle cx="1480" cy="100" r="25" />
      <circle cx="1290" cy="280" r="40" />
      <circle cx="1520" cy="260" r="35" />
      <circle cx="1240" cy="180" r="18" />
      <circle cx="1580" cy="220" r="22" />
      <!-- Spray Drops -->
      <circle cx="1340" cy="60" r="10" />
      <circle cx="1440" cy="50" r="8" />
      <circle cx="1220" cy="240" r="12" />
      <circle cx="1620" cy="180" r="10" />
    </g>
    <!-- Black Eye Mask Stencil Cutting Into Red -->
    <circle cx="1400" cy="200" r="110" fill="#000000" />
    <!-- Glowing Sharp White Anime Eyes in Center Safe Area -->
    <g fill="#FFFFFF">
      <!-- Left Eye -->
      <path d="M 1180 210 Q 1240 180, 1310 205 Q 1250 240, 1180 210 Z" />
      <!-- Right Eye -->
      <path d="M 1490 205 Q 1560 180, 1620 210 Q 1550 240, 1490 205 Z" />
    </g>
  </g>
</svg>